#!OML:ASF I:\Actors\actors\Patient Classification 1\Patient 1\Session 1\Subject1.ASF
:FULLY-SPECIFIED
:DEGREES
424
root 0.563005 17.4707 9.05123 5.98887 -4.81105 -8.91741
lowerback -1.16561 1.36565 5.27962
upperback -6.1663 2.03828 2.17237
thorax -5.65588 0.807476 -0.765903
lowerneck -0.347004 -4.03297 -2.8589
upperneck 18.559 -6.57095 7.07033
head 5.98046 -2.93881 2.35904
rclavicle 8.10048e-015 3.61788e-014
rhumerus 15.1343 32.8084 -46.0368
rradius 128.789
rwrist -27.4893
rhand 32.8129 -46.3022
rfingers 7.12502
rthumb 56.2165 -63.5228
lclavicle 8.10048e-015 3.61788e-014
lhumerus -40.5828 -30.5957 101.339
lradius 131.339
lwrist 24.2304
lhand -24.3719 -2.30608
lfingers 7.12502
lthumb 2.11815 27.6632
rfemur -4.78756 18.8392 26.0739
rtibia 9.37742
rfoot -13.4708 -18.6638
rtoes -1.63956
lfemur 8.62358 -38.6446 -14.1812
ltibia -3.61328
lfoot -23.6965 50.2259
ltoes 13.4346
425
root 0.565245 17.4716 9.04909 5.98576 -4.80284 -8.87487
lowerback -1.13346 1.37358 5.26544
upperback -6.04807 2.04447 2.15763
thorax -5.54776 0.814908 -0.773599
lowerneck 0.456436 -4.07879 -2.79615
upperneck 18.0863 -6.62748 7.18747
head 5.6986 -2.98294 2.40156
rclavicle -1.69961e-014 -9.54166e-015
rhumerus 16.187 31.6444 -45.1006
rradius 129.127
rwrist -28.5164
rhand 33.1256 -46.4158
rfingers 7.12502
rthumb 56.4929 -63.4165
lclavicle -1.69961e-014 -9.54166e-015
lhumerus -40.234 -30.7735 101.089
lradius 131.428
lwrist 24.2925
lhand -23.9274 -2.5058
lfingers 7.12502
lthumb 2.54749 27.4587
rfemur -4.79209 18.9084 26.0175
rtibia 9.37963
rfoot -13.4854 -18.7365
rtoes -1.38848
lfemur 8.53117 -38.3806 -14.1204
ltibia -3.64673
lfoot -23.2197 50.0399
ltoes 13.0172
426
root 0.567545 17.473 9.04493 6.0071 -4.76625 -8.87659
lowerback -1.03867 1.40359 5.32935
upperback -5.95225 2.08648 2.11223
thorax -5.49455 0.833903 -0.85934
lowerneck 1.34916 -4.05454 -2.60019
upperneck 17.4632 -6.55524 7.15976
head 5.34146 -2.97022 2.38617
rclavicle 3.52843e-015 2.06736e-014
rhumerus 17.0936 30.4761 -44.2056
rradius 129.516
rwrist -29.5596
rhand 33.0829 -46.6865
rfingers 7.12502
rthumb 56.4552 -63.7175
lclavicle 3.52843e-015 2.06736e-014
lhumerus -39.8853 -30.994 100.88
lradius 131.485
lwrist 24.2986
lhand -23.6073 -2.64883
lfingers 7.12502
lthumb 2.85664 27.3118
rfemur -4.84635 18.9275 26.001
rtibia 9.40348
rfoot -13.4774 -18.7837
rtoes -1.44871
lfemur 8.40689 -38.2572 -14.0177
ltibia -3.63645
lfoot -22.8568 49.9451
ltoes 12.5621
427
root 0.570338 17.4742 9.03905 6.04459 -4.70376 -8.89833
lowerback -0.884637 1.45587 5.43371
upperback -5.85948 2.16281 2.03854
thorax -5.47434 0.866521 -0.999666
lowerneck 1.94667 -4.08026 -2.29708
upperneck 17.0704 -6.56946 7.15056
head 5.11033 -2.98064 2.34774
rclavicle 4.37326e-015 -1.51076e-014
rhumerus 17.9553 29.3295 -43.269
rradius 129.932
rwrist -30.1629
rhand 32.7575 -46.9147
rfingers 7.12502
rthumb 56.1675 -64.1737
lclavicle 4.37326e-015 -1.51076e-014
lhumerus -39.5351 -31.2851 100.68
lradius 131.548
lwrist 24.2937
lhand -23.4759 -2.707
lfingers 7.12502
lthumb 2.98355 27.2519
rfemur -4.9311 18.8953 25.9953
rtibia 9.42372
rfoot -13.4508 -18.8146
rtoes -1.72353
lfemur 8.25947 -38.1901 -13.8821
ltibia -3.63227
lfoot -22.6279 49.8828
ltoes 12.0937
428
root 0.572989 17.4751 9.03303 6.09402 -4.61247 -8.94752
lowerback -0.745175 1.46642 5.52632
upperback -5.74292 2.18309 2.01303
thorax -5.4257 0.874318 -1.08103
lowerneck 2.19499 -4.19029 -2.37238
upperneck 16.8062 -6.73341 7.38862
head 5.00496 -3.06387 2.43398
rclavicle -2.83268e-015 -3.1408e-014
rhumerus 18.9154 28.2238 -42.2859
rradius 130.334
rwrist -30.1835
rhand 32.4715 -47.0304
rfingers 7.12502
rthumb 55.9141 -64.4866
lclavicle -2.83268e-015 -3.1408e-014
lhumerus -39.1751 -31.4694 100.46
lradius 131.599
lwrist 24.3101
lhand -23.4836 -2.72837
lfingers 7.12502
lthumb 2.97607 27.2306
rfemur -4.99961 18.9098 26.0221
rtibia 9.41108
rfoot -13.4605 -18.9012
rtoes -1.66412
lfemur 8.07148 -38.0807 -13.671
ltibia -3.64132
lfoot -22.4538 49.7547
ltoes 11.7278
429
root 0.574601 17.4765 9.028 6.16433 -4.49626 -9.02867
lowerback -0.615854 1.4293 5.58322
upperback -5.66704 2.1433 2.05772
thorax -5.42178 0.854234 -1.06767
lowerneck 2.39622 -4.1966 -2.70067
upperneck 16.7237 -6.78057 7.74481
head 4.96883 -3.09404 2.60273
rclavicle -1.10325e-014 1.98785e-015
rhumerus 19.7709 27.2268 -41.3627
rradius 130.645
rwrist -29.8822
rhand 32.4393 -46.8165
rfingers 7.12502
rthumb 55.8856 -64.2945
lclavicle -1.10325e-014 1.98785e-015
lhumerus -38.92 -31.4918 100.349
lradius 131.595
lwrist 24.2993
lhand -23.4917 -2.83919
lfingers 7.12502
lthumb 2.96825 27.1199
rfemur -5.03978 18.9704 26.096
rtibia 9.34372
rfoot -13.477 -19.0341
rtoes -1.3607
lfemur 7.89196 -38.0749 -13.4406
ltibia -3.65072
lfoot -22.3183 49.6925
ltoes 11.4877
430
root 0.576375 17.4789 9.02365 6.23593 -4.37507 -9.0459
lowerback -0.347449 1.79318 5.8948
upperback -5.51613 2.63198 1.6011
thorax -5.35417 1.07471 -1.73852
lowerneck 2.02205 -4.65971 -2.16598
upperneck 16.535 -7.45988 8.09875
head 5.00702 -3.36963 2.585
rclavicle 2.28602e-015 9.93923e-015
rhumerus 19.323 25.2755 -40.9811
rradius 130.945
rwrist -29.3148
rhand 32.4447 -46.3543
rfingers 7.12502
rthumb 55.8904 -63.8287
lclavicle 2.28602e-015 9.93923e-015
lhumerus -38.374 -32.9021 100.013
lradius 131.49
lwrist 24.4914
lhand -23.4213 -2.57929
lfingers 7.12502
lthumb 3.03627 27.3788
rfemur -5.07829 18.9773 26.0909
rtibia 9.24629
rfoot -13.4396 -19.145
rtoes -1.28932
lfemur 7.81622 -38.3923 -13.4189
ltibia -3.65139
lfoot -22.3048 49.8988
ltoes 11.3971
431
root 0.579211 17.4823 9.01938 6.31074 -4.26499 -9.02392
lowerback -0.131683 1.75045 5.88433
upperback -5.47373 2.59105 1.62491
thorax -5.43706 1.05379 -1.71342
lowerneck 1.58641 -4.69447 -2.31718
upperneck 16.9613 -7.52803 8.02219
head 5.21885 -3.39348 2.56927
rclavicle 2.23633e-015 -7.95139e-016
rhumerus 20.2993 24.4839 -39.8357
rradius 131.456
rwrist -29.0078
rhand 32.0906 -46.2
rfingers 7.12502
rthumb 55.576 -63.9136
lclavicle 2.23633e-015 -7.95139e-016
lhumerus -38.3221 -32.8014 100.047
lradius 131.48
lwrist 24.2859
lhand -23.3539 -2.09818
lfingers 7.12502
lthumb 3.10129 27.859
rfemur -5.13757 18.9186 26.0222
rtibia 9.14755
rfoot -13.3803 -19.2098
rtoes -1.43367
lfemur 7.82185 -38.9409 -13.5339
ltibia -3.67044
lfoot -22.6222 50.2755
ltoes 11.7863
432
root 0.581489 17.4859 9.01359 6.44433 -4.1399 -9.05851
lowerback -0.0299219 1.31671 5.57948
upperback -5.5263 2.03675 2.15264
thorax -5.61793 0.80123 -0.976959
lowerneck 0.44831 -4.46241 -3.06344
upperneck 18.7197 -7.17389 7.14508
head 5.93787 -3.25385 2.40093
rclavicle -1.07841e-014 -1.19271e-015
rhumerus 21.8181 24.5882 -38.6093
rradius 131.774
rwrist -28.9748
rhand 32.0679 -45.5909
rfingers 7.12502
rthumb 55.5558 -63.3197
lclavicle -1.07841e-014 -1.19271e-015
lhumerus -38.5998 -31.2895 100.386
lradius 131.557
lwrist 23.8175
lhand -23.3852 -2.18497
lfingers 7.12502
lthumb 3.0711 27.7727
rfemur -5.26956 18.89 25.9992
rtibia 9.0557
rfoot -13.3388 -19.2911
rtoes -1.40998
lfemur 7.63798 -39.2751 -13.4119
ltibia -3.66824
lfoot -22.9356 50.4314
ltoes 12.1928
433
root 0.581089 17.4887 9.00664 6.58888 -3.99244 -9.09812
lowerback 0.144791 1.30619 5.5809
upperback -5.44348 2.03309 2.16371
thorax -5.63071 0.800566 -0.969904
lowerneck 0.257028 -4.46457 -3.7071
upperneck 18.6621 -7.28402 8.00881
head 6.00936 -3.29048 2.77134
rclavicle -7.90169e-015 -2.46493e-014
rhumerus 22.2621 23.5778 -37.8505
rradius 132.071
rwrist -29.0776
rhand 32.1671 -45.1088
rfingers 7.12502
rthumb 55.644 -62.7711
lclavicle -7.90169e-015 -2.46493e-014
lhumerus -38.3619 -31.3222 100.347
lradius 131.554
lwrist 23.7735
lhand -23.3666 -2.51228
lfingers 7.12502
lthumb 3.08903 27.4451
rfemur -5.40541 18.9496 25.9952
rtibia 8.95793
rfoot -13.3126 -19.4507
rtoes -1.23937
lfemur 7.28154 -39.2918 -13.1166
ltibia -3.6167
lfoot -22.9165 50.3098
ltoes 12.2012
434
root 0.580179 17.4916 9.00163 6.69558 -3.83542 -9.14302
lowerback 0.346066 1.29772 5.59218
upperback -5.38485 2.03542 2.16473
thorax -5.68357 0.80079 -0.979842
lowerneck 0.53667 -4.50105 -4.14958
upperneck 18.2068 -7.4047 8.75382
head 5.86556 -3.34781 3.08225
rclavicle -1.35671e-014 -3.4191e-014
rhumerus 22.7751 22.662 -37.0544
rradius 132.463
rwrist -29.2292
rhand 32.128 -45.0516
rfingers 7.12502
rthumb 55.6093 -62.7402
lclavicle -1.35671e-014 -3.4191e-014
lhumerus -38.2547 -31.3718 100.375
lradius 131.565
lwrist 23.7778
lhand -23.3445 -2.87906
lfingers 7.12502
lthumb 3.11042 27.078
rfemur -5.45079 18.9599 26.0181
rtibia 8.79638
rfoot -13.2409 -19.6055
rtoes -1.1706
lfemur 7.01649 -39.2871 -12.861
ltibia -3.61118
lfoot -22.802 50.1922
ltoes 12.1461
